<svg xmlns="http://www.w3.org/2000/svg" viewBox="0 0 64 64" fill="none">
  <circle cx="32" cy="32" r="30" fill="#6366f1"/>
  <circle cx="32" cy="32" r="30" fill="url(#g)" opacity="0.5"/>
  <g stroke="#fff" stroke-width="3" stroke-linecap="round" stroke-linejoin="round">
    <!-- Circular arrows -->
    <path d="M44 24a14 14 0 0 0-24.5 1.5"/>
    <path d="M20 40a14 14 0 0 0 24.5-1.5"/>
    <polyline points="44 18 44 24 38 24"/>
    <polyline points="20 46 20 40 26 40"/>
    <!-- Dollar sign -->
    <path d="M32 22v20"/>
    <path d="M27 27c0-2.5 2.2-4 5-4s5 1.5 5 4-2.2 3.5-5 4-5 1.5-5 4 2.2 4 5 4 5-1.5 5-4"/>
  </g>
  <defs>
    <radialGradient id="g" cx="0.3" cy="0.3" r="0.8">
      <stop offset="0" stop-color="#a78bfa"/>
      <stop offset="1" stop-color="#6366f1" stop-opacity="0"/>
    </radialGradient>
  </defs>
</svg>
